<mxfile host="app.diagrams.net" agent="Mozilla/5.0 (Windows NT 10.0; Win64; x64) AppleWebKit/537.36 (KHTML, like Gecko) Chrome/138.0.0.0 Safari/537.36" version="28.0.7">
  <diagram name="Page-1" id="CUzxmkdWhXF4pSD_VdGU">
    <mxGraphModel dx="262" dy="150" grid="1" gridSize="10" guides="0" tooltips="1" connect="1" arrows="1" fold="1" page="0" pageScale="1" pageWidth="827" pageHeight="1169" math="0" shadow="0">
      <root>
        <mxCell id="0" />
        <mxCell id="1" parent="0" />
        <mxCell id="fnEj_ayywKSCDemoJo8B-59" value="" style="group" parent="1" vertex="1" connectable="0">
          <mxGeometry x="880" y="173" width="114" height="74" as="geometry" />
        </mxCell>
        <mxCell id="fnEj_ayywKSCDemoJo8B-50" value="" style="rounded=1;whiteSpace=wrap;html=1;strokeColor=#FF932E;fillColor=#FCF3A9;" parent="fnEj_ayywKSCDemoJo8B-59" vertex="1">
          <mxGeometry x="4" width="110" height="74" as="geometry" />
        </mxCell>
        <UserObject label="Sign Up" placeholders="1" name="Variable" id="fnEj_ayywKSCDemoJo8B-51">
          <mxCell style="text;html=1;strokeColor=none;fillColor=none;align=center;verticalAlign=middle;whiteSpace=wrap;overflow=hidden;fontSize=8;flipH=0;flipV=0;fontColor=light-dark(#FF932E,#FFC856);" parent="fnEj_ayywKSCDemoJo8B-59" vertex="1">
            <mxGeometry y="2" width="50" height="14" as="geometry" />
          </mxCell>
        </UserObject>
        <mxCell id="fnEj_ayywKSCDemoJo8B-61" value="" style="group" parent="1" vertex="1" connectable="0">
          <mxGeometry x="603" y="173" width="114" height="74" as="geometry" />
        </mxCell>
        <mxCell id="fnEj_ayywKSCDemoJo8B-34" value="" style="rounded=1;whiteSpace=wrap;html=1;strokeColor=#FF932E;fillColor=#FCF3A9;" parent="fnEj_ayywKSCDemoJo8B-61" vertex="1">
          <mxGeometry x="4" width="110" height="74" as="geometry" />
        </mxCell>
        <UserObject label="Sign Up" placeholders="1" name="Variable" id="fnEj_ayywKSCDemoJo8B-35">
          <mxCell style="text;html=1;strokeColor=none;fillColor=none;align=center;verticalAlign=middle;whiteSpace=wrap;overflow=hidden;fontSize=8;flipH=0;flipV=0;fontColor=light-dark(#FF932E,#FFC856);" parent="fnEj_ayywKSCDemoJo8B-61" vertex="1">
            <mxGeometry y="2" width="50" height="14" as="geometry" />
          </mxCell>
        </UserObject>
        <mxCell id="fnEj_ayywKSCDemoJo8B-58" value="" style="group" parent="1" vertex="1" connectable="0">
          <mxGeometry x="380" y="120" width="220" height="150" as="geometry" />
        </mxCell>
        <mxCell id="fnEj_ayywKSCDemoJo8B-17" value="|&amp;nbsp; &amp;nbsp; &amp;nbsp; &amp;nbsp; &amp;nbsp; ||&amp;nbsp; &amp;nbsp; &amp;nbsp; &amp;nbsp; &amp;nbsp; ||&amp;nbsp; &amp;nbsp; &amp;nbsp; &amp;nbsp; &amp;nbsp; |&amp;nbsp; &amp;nbsp; &amp;nbsp; &amp;nbsp; &amp;nbsp; &amp;nbsp; &amp;nbsp; &amp;nbsp; &amp;nbsp; &amp;nbsp; &amp;nbsp; &amp;nbsp;&amp;nbsp;" style="rounded=0;whiteSpace=wrap;html=1;strokeWidth=0;labelBackgroundColor=none;strokeColor=none;" parent="fnEj_ayywKSCDemoJo8B-58" vertex="1">
          <mxGeometry width="220" height="10" as="geometry" />
        </mxCell>
        <mxCell id="fnEj_ayywKSCDemoJo8B-18" value="" style="rounded=0;whiteSpace=wrap;html=1;fillColor=#FFC856;fillStyle=auto;gradientColor=#FCF3A9;gradientDirection=radial;strokeWidth=0;dashed=1;dashPattern=1 4;strokeColor=none;" parent="fnEj_ayywKSCDemoJo8B-58" vertex="1">
          <mxGeometry x="10" y="20" width="200" height="130" as="geometry" />
        </mxCell>
        <mxCell id="fnEj_ayywKSCDemoJo8B-19" value="&lt;font style=&quot;font-size: 7px;&quot;&gt;&amp;lt;&amp;nbsp; &amp;gt;&amp;nbsp; @&amp;nbsp; &amp;nbsp;|https://www.gratia.com&amp;nbsp; &amp;nbsp; &amp;nbsp; &amp;nbsp; &amp;nbsp; &amp;nbsp; &amp;nbsp; &amp;nbsp; &amp;nbsp; &amp;nbsp; &amp;nbsp; &amp;nbsp; &amp;nbsp; &amp;nbsp; &amp;nbsp; &amp;nbsp; &amp;nbsp; &amp;nbsp; &amp;nbsp; &amp;nbsp; &amp;nbsp; | #&amp;nbsp; :&lt;/font&gt;" style="rounded=0;whiteSpace=wrap;html=1;strokeWidth=0;align=left;strokeColor=none;" parent="fnEj_ayywKSCDemoJo8B-58" vertex="1">
          <mxGeometry x="10" y="10" width="200" height="10" as="geometry" />
        </mxCell>
        <mxCell id="fnEj_ayywKSCDemoJo8B-9" value="|&amp;nbsp; &amp;nbsp; &amp;nbsp; &amp;nbsp; &amp;nbsp; ||&amp;nbsp; &amp;nbsp; &amp;nbsp; &amp;nbsp; &amp;nbsp; ||&amp;nbsp; &amp;nbsp; &amp;nbsp; &amp;nbsp; &amp;nbsp; |&amp;nbsp; &amp;nbsp; &amp;nbsp; &amp;nbsp; &amp;nbsp; &amp;nbsp; &amp;nbsp; &amp;nbsp; &amp;nbsp; &amp;nbsp; &amp;nbsp; &amp;nbsp;&amp;nbsp;" style="rounded=0;whiteSpace=wrap;html=1;strokeWidth=0;labelBackgroundColor=none;strokeColor=none;" parent="1" vertex="1">
          <mxGeometry x="160" y="100" width="220" height="10" as="geometry" />
        </mxCell>
        <mxCell id="fnEj_ayywKSCDemoJo8B-1" value="" style="rounded=0;whiteSpace=wrap;html=1;fillColor=#FFC856;fillStyle=auto;gradientColor=#FCF3A9;gradientDirection=radial;strokeWidth=0;dashed=1;dashPattern=1 4;strokeColor=none;" parent="1" vertex="1">
          <mxGeometry x="170" y="190" width="200" height="60" as="geometry" />
        </mxCell>
        <mxCell id="fnEj_ayywKSCDemoJo8B-2" value="&lt;font style=&quot;font-size: 7px;&quot;&gt;&amp;lt;&amp;nbsp; &amp;gt;&amp;nbsp; @&amp;nbsp; &amp;nbsp;|https://www.gratia.com&amp;nbsp; &amp;nbsp; &amp;nbsp; &amp;nbsp; &amp;nbsp; &amp;nbsp; &amp;nbsp; &amp;nbsp; &amp;nbsp; &amp;nbsp; &amp;nbsp; &amp;nbsp; &amp;nbsp; &amp;nbsp; &amp;nbsp; &amp;nbsp; &amp;nbsp; &amp;nbsp; &amp;nbsp; &amp;nbsp; &amp;nbsp; | #&amp;nbsp; :&lt;/font&gt;" style="rounded=0;whiteSpace=wrap;html=1;strokeWidth=0;align=left;strokeColor=none;" parent="1" vertex="1">
          <mxGeometry x="170" y="110" width="200" height="10" as="geometry" />
        </mxCell>
        <mxCell id="fnEj_ayywKSCDemoJo8B-5" value="&lt;font style=&quot;font-size: 10px;&quot;&gt;Get Started&lt;/font&gt;" style="rounded=1;whiteSpace=wrap;html=1;strokeColor=#FF932E;fillColor=#FCF3A9;" parent="1" vertex="1">
          <mxGeometry x="240" y="210" width="60" height="20" as="geometry" />
        </mxCell>
        <mxCell id="fnEj_ayywKSCDemoJo8B-6" value="Image of charity" style="rounded=0;whiteSpace=wrap;html=1;strokeWidth=0;strokeColor=none;" parent="1" vertex="1">
          <mxGeometry x="170" y="120" width="200" height="70" as="geometry" />
        </mxCell>
        <mxCell id="fnEj_ayywKSCDemoJo8B-7" value="Short description of charity, &quot;Help your community today&quot;" style="rounded=0;whiteSpace=wrap;html=1;fillColor=light-dark(#FCF3A9,#FFC856);gradientColor=none;fontColor=#FF932E;strokeWidth=0;dashed=1;dashPattern=1 4;perimeterSpacing=0;glass=0;shadow=0;strokeColor=none;" parent="1" vertex="1">
          <mxGeometry x="170" y="250" width="200" height="40" as="geometry" />
        </mxCell>
        <mxCell id="fnEj_ayywKSCDemoJo8B-10" value="Landing page" style="text;strokeColor=none;fillColor=none;html=1;fontSize=24;fontStyle=1;verticalAlign=middle;align=center;" parent="1" vertex="1">
          <mxGeometry x="220" y="60" width="100" height="40" as="geometry" />
        </mxCell>
        <mxCell id="fnEj_ayywKSCDemoJo8B-36" style="edgeStyle=orthogonalEdgeStyle;rounded=0;orthogonalLoop=1;jettySize=auto;html=1;entryX=0;entryY=0.5;entryDx=0;entryDy=0;" parent="1" source="fnEj_ayywKSCDemoJo8B-20" target="fnEj_ayywKSCDemoJo8B-34" edge="1">
          <mxGeometry relative="1" as="geometry" />
        </mxCell>
        <mxCell id="fnEj_ayywKSCDemoJo8B-20" value="" style="rounded=1;whiteSpace=wrap;html=1;strokeColor=#FF932E;fillColor=#FCF3A9;" parent="1" vertex="1">
          <mxGeometry x="436" y="173" width="110" height="74" as="geometry" />
        </mxCell>
        <UserObject label="Sign Up" placeholders="1" name="Variable" id="fnEj_ayywKSCDemoJo8B-23">
          <mxCell style="text;html=1;strokeColor=none;fillColor=none;align=center;verticalAlign=middle;whiteSpace=wrap;overflow=hidden;fontSize=8;flipH=0;flipV=0;fontColor=light-dark(#FF932E,#FFC856);" parent="1" vertex="1">
            <mxGeometry x="432" y="175" width="50" height="14" as="geometry" />
          </mxCell>
        </UserObject>
        <mxCell id="fnEj_ayywKSCDemoJo8B-32" style="edgeStyle=orthogonalEdgeStyle;rounded=0;orthogonalLoop=1;jettySize=auto;html=1;entryX=0.004;entryY=0.374;entryDx=0;entryDy=0;entryPerimeter=0;exitX=1;exitY=0.5;exitDx=0;exitDy=0;" parent="1" source="fnEj_ayywKSCDemoJo8B-5" target="fnEj_ayywKSCDemoJo8B-18" edge="1">
          <mxGeometry relative="1" as="geometry">
            <Array as="points">
              <mxPoint x="336" y="220" />
              <mxPoint x="336" y="189" />
            </Array>
          </mxGeometry>
        </mxCell>
        <mxCell id="fnEj_ayywKSCDemoJo8B-47" style="edgeStyle=orthogonalEdgeStyle;rounded=0;orthogonalLoop=1;jettySize=auto;html=1;entryX=0;entryY=0.5;entryDx=0;entryDy=0;" parent="1" source="fnEj_ayywKSCDemoJo8B-34" target="fnEj_ayywKSCDemoJo8B-44" edge="1">
          <mxGeometry relative="1" as="geometry">
            <mxPoint x="743" y="201" as="targetPoint" />
          </mxGeometry>
        </mxCell>
        <mxCell id="fnEj_ayywKSCDemoJo8B-52" style="edgeStyle=orthogonalEdgeStyle;rounded=0;orthogonalLoop=1;jettySize=auto;html=1;entryX=0;entryY=0.5;entryDx=0;entryDy=0;" parent="1" source="fnEj_ayywKSCDemoJo8B-44" target="fnEj_ayywKSCDemoJo8B-50" edge="1">
          <mxGeometry relative="1" as="geometry" />
        </mxCell>
        <mxCell id="fnEj_ayywKSCDemoJo8B-53" value="&lt;span style=&quot;font-size: 8px;&quot;&gt;Thank you for signing up. Let&#39;s work as a community to help those in need&lt;/span&gt;" style="rounded=0;whiteSpace=wrap;html=1;fillColor=light-dark(#FCF3A9,#FFC856);gradientColor=none;fontColor=#FFC856;strokeWidth=0;dashed=1;dashPattern=1 4;perimeterSpacing=0;glass=0;shadow=0;strokeColor=none;horizontal=1;spacing=0;spacingTop=0;" parent="1" vertex="1">
          <mxGeometry x="892" y="205" width="92" height="6" as="geometry" />
        </mxCell>
        <mxCell id="fnEj_ayywKSCDemoJo8B-54" style="edgeStyle=orthogonalEdgeStyle;rounded=0;orthogonalLoop=1;jettySize=auto;html=1;exitX=0.5;exitY=1;exitDx=0;exitDy=0;" parent="1" source="fnEj_ayywKSCDemoJo8B-53" target="fnEj_ayywKSCDemoJo8B-53" edge="1">
          <mxGeometry relative="1" as="geometry" />
        </mxCell>
        <mxCell id="fnEj_ayywKSCDemoJo8B-56" value="&lt;p&gt;&lt;font style=&quot;line-height: 0%; font-size: 4px;&quot;&gt;Struggling financially?&lt;/font&gt;&lt;/p&gt;" style="rounded=1;whiteSpace=wrap;html=1;strokeColor=#FF932E;fillColor=#FCF3A9;" parent="1" vertex="1">
          <mxGeometry x="945" y="235" width="42" height="9" as="geometry" />
        </mxCell>
        <mxCell id="fnEj_ayywKSCDemoJo8B-69" style="edgeStyle=orthogonalEdgeStyle;rounded=0;orthogonalLoop=1;jettySize=auto;html=1;entryX=0.5;entryY=0;entryDx=0;entryDy=0;" parent="1" source="fnEj_ayywKSCDemoJo8B-57" target="fnEj_ayywKSCDemoJo8B-66" edge="1">
          <mxGeometry relative="1" as="geometry" />
        </mxCell>
        <mxCell id="fnEj_ayywKSCDemoJo8B-57" value="&lt;p&gt;&lt;font style=&quot;line-height: 0%; font-size: 8px;&quot;&gt;Go Home&lt;/font&gt;&lt;/p&gt;" style="rounded=1;whiteSpace=wrap;html=1;strokeColor=#FF932E;fillColor=#FCF3A9;fontColor=light-dark(#FF932E,#EDEDED);" parent="1" vertex="1">
          <mxGeometry x="897" y="235" width="42" height="9" as="geometry" />
        </mxCell>
        <mxCell id="fnEj_ayywKSCDemoJo8B-62" value="" style="group" parent="1" vertex="1" connectable="0">
          <mxGeometry x="630" y="190" width="47" height="38" as="geometry" />
        </mxCell>
        <mxCell id="fnEj_ayywKSCDemoJo8B-39" value="&lt;font style=&quot;font-size: 8px;&quot;&gt;Location&lt;/font&gt;" style="rounded=0;whiteSpace=wrap;html=1;fillColor=light-dark(#FCF3A9,#FFC856);gradientColor=none;fontColor=#FFC856;strokeWidth=0;dashed=1;dashPattern=1 4;perimeterSpacing=0;glass=0;shadow=0;strokeColor=none;" parent="fnEj_ayywKSCDemoJo8B-62" vertex="1">
          <mxGeometry width="39" height="6" as="geometry" />
        </mxCell>
        <mxCell id="fnEj_ayywKSCDemoJo8B-40" value="&lt;font style=&quot;font-size: 6px;&quot;&gt;Country&lt;/font&gt;" style="rounded=0;whiteSpace=wrap;html=1;fillColor=light-dark(#FCF3A9,#FFC856);gradientColor=none;fontColor=#FFC856;strokeWidth=0;dashed=1;dashPattern=1 4;perimeterSpacing=0;glass=0;shadow=0;strokeColor=none;" parent="fnEj_ayywKSCDemoJo8B-62" vertex="1">
          <mxGeometry y="9" width="30" height="6" as="geometry" />
        </mxCell>
        <mxCell id="fnEj_ayywKSCDemoJo8B-41" value="&lt;font style=&quot;font-size: 6px;&quot;&gt;*dropdown*&lt;/font&gt;" style="rounded=1;whiteSpace=wrap;html=1;strokeColor=light-dark(#FFFFFF,#FFC856);strokeWidth=1;fillColor=#E6E6E6;" parent="fnEj_ayywKSCDemoJo8B-62" vertex="1">
          <mxGeometry x="6" y="18" width="39" height="6" as="geometry" />
        </mxCell>
        <mxCell id="fnEj_ayywKSCDemoJo8B-42" value="&lt;font style=&quot;font-size: 6px;&quot;&gt;Address&lt;/font&gt;" style="rounded=0;whiteSpace=wrap;html=1;fillColor=light-dark(#FCF3A9,#FFC856);gradientColor=none;fontColor=#FFC856;strokeWidth=0;dashed=1;dashPattern=1 4;perimeterSpacing=0;glass=0;shadow=0;strokeColor=none;" parent="fnEj_ayywKSCDemoJo8B-62" vertex="1">
          <mxGeometry x="6" y="26" width="20" height="1" as="geometry" />
        </mxCell>
        <mxCell id="fnEj_ayywKSCDemoJo8B-43" value="&lt;span style=&quot;font-size: 6px;&quot;&gt;input=&#39;text&#39;&lt;/span&gt;" style="rounded=1;whiteSpace=wrap;html=1;strokeColor=light-dark(#FFFFFF,#FFC856);strokeWidth=1;fillColor=#E6E6E6;fontSize=12;" parent="fnEj_ayywKSCDemoJo8B-62" vertex="1">
          <mxGeometry x="6" y="32" width="41" height="6" as="geometry" />
        </mxCell>
        <mxCell id="fnEj_ayywKSCDemoJo8B-64" value="" style="group" parent="1" vertex="1" connectable="0">
          <mxGeometry x="437" y="189" width="98" height="54" as="geometry" />
        </mxCell>
        <mxCell id="fnEj_ayywKSCDemoJo8B-22" value="&lt;font style=&quot;font-size: 6px;&quot;&gt;Name&lt;/font&gt;" style="rounded=0;whiteSpace=wrap;html=1;fillColor=light-dark(#FCF3A9,#FFC856);gradientColor=none;fontColor=#FFC856;strokeWidth=0;dashed=1;dashPattern=1 4;perimeterSpacing=0;glass=0;shadow=0;strokeColor=none;" parent="fnEj_ayywKSCDemoJo8B-64" vertex="1">
          <mxGeometry width="30" height="6" as="geometry" />
        </mxCell>
        <mxCell id="fnEj_ayywKSCDemoJo8B-24" value="&lt;font style=&quot;font-size: 8px;&quot;&gt;Contact details&lt;/font&gt;" style="rounded=0;whiteSpace=wrap;html=1;fillColor=light-dark(#FCF3A9,#FFC856);gradientColor=none;fontColor=#FFC856;strokeWidth=0;dashed=1;dashPattern=1 4;perimeterSpacing=0;glass=0;shadow=0;strokeColor=none;" parent="fnEj_ayywKSCDemoJo8B-64" vertex="1">
          <mxGeometry y="16" width="60" height="6" as="geometry" />
        </mxCell>
        <mxCell id="fnEj_ayywKSCDemoJo8B-25" value="" style="rounded=1;whiteSpace=wrap;html=1;strokeColor=light-dark(#FFFFFF,#FFC856);strokeWidth=1;fillColor=#E6E6E6;" parent="fnEj_ayywKSCDemoJo8B-64" vertex="1">
          <mxGeometry x="7" y="9" width="91" height="6" as="geometry" />
        </mxCell>
        <mxCell id="fnEj_ayywKSCDemoJo8B-28" value="&lt;font style=&quot;font-size: 6px;&quot;&gt;Email&lt;/font&gt;" style="rounded=0;whiteSpace=wrap;html=1;fillColor=light-dark(#FCF3A9,#FFC856);gradientColor=none;fontColor=#FFC856;strokeWidth=0;dashed=1;dashPattern=1 4;perimeterSpacing=0;glass=0;shadow=0;strokeColor=none;" parent="fnEj_ayywKSCDemoJo8B-64" vertex="1">
          <mxGeometry y="25" width="30" height="6" as="geometry" />
        </mxCell>
        <mxCell id="fnEj_ayywKSCDemoJo8B-29" value="" style="rounded=1;whiteSpace=wrap;html=1;strokeColor=light-dark(#FFFFFF,#FFC856);strokeWidth=1;fillColor=#E6E6E6;" parent="fnEj_ayywKSCDemoJo8B-64" vertex="1">
          <mxGeometry x="6" y="34" width="91" height="6" as="geometry" />
        </mxCell>
        <mxCell id="fnEj_ayywKSCDemoJo8B-30" value="&lt;font style=&quot;font-size: 6px;&quot;&gt;Phone Number&lt;/font&gt;" style="rounded=0;whiteSpace=wrap;html=1;fillColor=light-dark(#FCF3A9,#FFC856);gradientColor=none;fontColor=#FFC856;strokeWidth=0;dashed=1;dashPattern=1 4;perimeterSpacing=0;glass=0;shadow=0;strokeColor=none;" parent="fnEj_ayywKSCDemoJo8B-64" vertex="1">
          <mxGeometry x="6" y="40" width="43" height="6" as="geometry" />
        </mxCell>
        <mxCell id="fnEj_ayywKSCDemoJo8B-31" value="&lt;font style=&quot;font-size: 6px;&quot;&gt;type=&#39;number&#39;&lt;/font&gt;" style="rounded=1;whiteSpace=wrap;html=1;strokeColor=light-dark(#FFFFFF,#FFC856);strokeWidth=1;fillColor=#E6E6E6;" parent="fnEj_ayywKSCDemoJo8B-64" vertex="1">
          <mxGeometry x="6" y="48" width="41" height="6" as="geometry" />
        </mxCell>
        <mxCell id="fnEj_ayywKSCDemoJo8B-65" value="" style="group;fontSize=13;" parent="1" vertex="1" connectable="0">
          <mxGeometry x="791" y="305" width="325" height="467" as="geometry" />
        </mxCell>
        <mxCell id="fnEj_ayywKSCDemoJo8B-66" value="|&amp;nbsp; &amp;nbsp; &amp;nbsp; &amp;nbsp; &amp;nbsp; ||&amp;nbsp; &amp;nbsp; &amp;nbsp; &amp;nbsp; &amp;nbsp; ||&amp;nbsp; &amp;nbsp; &amp;nbsp; &amp;nbsp; &amp;nbsp; |&amp;nbsp; &amp;nbsp; &amp;nbsp; &amp;nbsp; &amp;nbsp; &amp;nbsp; &amp;nbsp; &amp;nbsp; &amp;nbsp; &amp;nbsp; &amp;nbsp; &amp;nbsp;&amp;nbsp;" style="rounded=0;whiteSpace=wrap;html=1;strokeWidth=0;labelBackgroundColor=none;strokeColor=none;" parent="fnEj_ayywKSCDemoJo8B-65" vertex="1">
          <mxGeometry width="220" height="10" as="geometry" />
        </mxCell>
        <mxCell id="fnEj_ayywKSCDemoJo8B-67" value="" style="rounded=0;whiteSpace=wrap;html=1;fillColor=#FFC856;fillStyle=auto;gradientColor=light-dark(#FFCA78,#FFC856);gradientDirection=radial;strokeWidth=0;dashed=1;dashPattern=1 4;strokeColor=none;" parent="fnEj_ayywKSCDemoJo8B-65" vertex="1">
          <mxGeometry x="10" y="20" width="200" height="130" as="geometry" />
        </mxCell>
        <mxCell id="fnEj_ayywKSCDemoJo8B-68" value="&lt;font style=&quot;font-size: 7px;&quot;&gt;&amp;lt;&amp;nbsp; &amp;gt;&amp;nbsp; @&amp;nbsp; &amp;nbsp;|https://www.gratia.com&amp;nbsp; &amp;nbsp; &amp;nbsp; &amp;nbsp; &amp;nbsp; &amp;nbsp; &amp;nbsp; &amp;nbsp; &amp;nbsp; &amp;nbsp; &amp;nbsp; &amp;nbsp; &amp;nbsp; &amp;nbsp; &amp;nbsp; &amp;nbsp; &amp;nbsp; &amp;nbsp; &amp;nbsp; &amp;nbsp; &amp;nbsp; | #&amp;nbsp; :&lt;/font&gt;" style="rounded=0;whiteSpace=wrap;html=1;strokeWidth=0;align=left;strokeColor=none;" parent="fnEj_ayywKSCDemoJo8B-65" vertex="1">
          <mxGeometry x="10" y="10" width="200" height="10" as="geometry" />
        </mxCell>
        <mxCell id="kvqN7XmEF2bgXKHRiKG0-5" value="" style="group" parent="fnEj_ayywKSCDemoJo8B-65" vertex="1" connectable="0">
          <mxGeometry x="195" y="24" width="12" height="12" as="geometry" />
        </mxCell>
        <mxCell id="kvqN7XmEF2bgXKHRiKG0-4" value="" style="ellipse;whiteSpace=wrap;html=1;aspect=fixed;strokeWidth=0.5;fillColor=#FF932E;" parent="kvqN7XmEF2bgXKHRiKG0-5" vertex="1">
          <mxGeometry width="12" height="12" as="geometry" />
        </mxCell>
        <mxCell id="kvqN7XmEF2bgXKHRiKG0-2" value="" style="shape=actor;whiteSpace=wrap;html=1;strokeWidth=0.25;" parent="kvqN7XmEF2bgXKHRiKG0-5" vertex="1">
          <mxGeometry x="3.4285714285714284" y="1.7142857142857142" width="5.142857142857142" height="8.571428571428571" as="geometry" />
        </mxCell>
        <mxCell id="kvqN7XmEF2bgXKHRiKG0-7" value="" style="endArrow=none;html=1;rounded=0;exitX=0.007;exitY=0.127;exitDx=0;exitDy=0;exitPerimeter=0;entryX=0.997;entryY=0.138;entryDx=0;entryDy=0;entryPerimeter=0;" parent="fnEj_ayywKSCDemoJo8B-65" source="fnEj_ayywKSCDemoJo8B-67" target="fnEj_ayywKSCDemoJo8B-67" edge="1">
          <mxGeometry width="50" height="50" relative="1" as="geometry">
            <mxPoint x="74" y="106" as="sourcePoint" />
            <mxPoint x="226" y="100" as="targetPoint" />
          </mxGeometry>
        </mxCell>
        <UserObject label="&lt;font data-font-src=&quot;https://fonts.googleapis.com/css?family=Dancing+Script&quot; face=&quot;Dancing Script&quot; style=&quot;font-size: 9px;&quot;&gt;Gratia&lt;/font&gt;" placeholders="1" name="Variable" id="kvqN7XmEF2bgXKHRiKG0-9">
          <mxCell style="text;html=1;strokeColor=none;fillColor=none;align=center;verticalAlign=middle;whiteSpace=wrap;overflow=hidden;fontSize=5;fontStyle=1" parent="fnEj_ayywKSCDemoJo8B-65" vertex="1">
            <mxGeometry x="85" y="21" width="50" height="15" as="geometry" />
          </mxCell>
        </UserObject>
        <mxCell id="kvqN7XmEF2bgXKHRiKG0-10" value="&lt;p&gt;&lt;font style=&quot;line-height: 0%;&quot;&gt;Donate&lt;/font&gt;&lt;/p&gt;" style="rounded=1;whiteSpace=wrap;html=1;strokeColor=#FF932E;fillColor=#FCF3A9;fontColor=light-dark(#FF932E,#EDEDED);fontSize=5;" parent="fnEj_ayywKSCDemoJo8B-65" vertex="1">
          <mxGeometry x="144" y="26" width="28" height="7" as="geometry" />
        </mxCell>
        <mxCell id="kvqN7XmEF2bgXKHRiKG0-21" value="&lt;p&gt;&lt;font style=&quot;line-height: 0%;&quot;&gt;About Us&lt;/font&gt;&lt;/p&gt;" style="rounded=1;whiteSpace=wrap;html=1;strokeColor=#FF932E;fillColor=#FCF3A9;fontColor=light-dark(#FF932E,#EDEDED);fontSize=5;" parent="fnEj_ayywKSCDemoJo8B-65" vertex="1">
          <mxGeometry x="16" y="26" width="28" height="7" as="geometry" />
        </mxCell>
        <mxCell id="kvqN7XmEF2bgXKHRiKG0-22" value="*placeholder*" style="rounded=1;whiteSpace=wrap;html=1;strokeColor=#FF932E;fillColor=#FCF3A9;fontColor=light-dark(#FF932E,#EDEDED);fontSize=4;" parent="fnEj_ayywKSCDemoJo8B-65" vertex="1">
          <mxGeometry x="59" y="26" width="28" height="7" as="geometry" />
        </mxCell>
        <mxCell id="kvqN7XmEF2bgXKHRiKG0-37" value="Map of their local area, if none, &quot;No Location Selected&quot;, with button saying Select Location, Change Location button will not show until location selected" style="rounded=1;whiteSpace=wrap;html=1;strokeColor=#FF932E;fillColor=#FCF3A9;fontColor=light-dark(#FF932E,#EDEDED);fontSize=4;" parent="fnEj_ayywKSCDemoJo8B-65" vertex="1">
          <mxGeometry x="20" y="52" width="42" height="43" as="geometry" />
        </mxCell>
        <mxCell id="kvqN7XmEF2bgXKHRiKG0-38" value="Alt text of map" style="rounded=1;whiteSpace=wrap;html=1;strokeColor=#FF932E;fillColor=#FCF3A9;fontColor=light-dark(#FF932E,#EDEDED);fontSize=4;" parent="fnEj_ayywKSCDemoJo8B-65" vertex="1">
          <mxGeometry x="20" y="98" width="42" height="6" as="geometry" />
        </mxCell>
        <mxCell id="kvqN7XmEF2bgXKHRiKG0-39" value="Change Location" style="rounded=1;whiteSpace=wrap;html=1;strokeColor=#FF932E;fillColor=#FCF3A9;fontColor=light-dark(#FF932E,#EDEDED);fontSize=2;" parent="fnEj_ayywKSCDemoJo8B-65" vertex="1">
          <mxGeometry x="20" y="107" width="18" height="6" as="geometry" />
        </mxCell>
        <mxCell id="kvqN7XmEF2bgXKHRiKG0-56" value="&lt;div style=&quot;&quot;&gt;&lt;span style=&quot;background-color: transparent; color: light-dark(rgb(255, 147, 46), rgb(237, 237, 237));&quot;&gt;Donations I made This Year:&lt;br&gt;Donations I made All Time:&lt;br&gt;Most Frequent Donation:&lt;br&gt;I have helped:&lt;/span&gt;&lt;/div&gt;" style="rounded=1;whiteSpace=wrap;html=1;strokeColor=#FF932E;fillColor=#FCF3A9;fontColor=light-dark(#FF932E,#EDEDED);fontSize=4;align=left;" parent="fnEj_ayywKSCDemoJo8B-65" vertex="1">
          <mxGeometry x="85" y="53" width="118" height="22" as="geometry" />
        </mxCell>
        <mxCell id="kvqN7XmEF2bgXKHRiKG0-73" value="&lt;p&gt;&lt;font style=&quot;line-height: 0%;&quot;&gt;Your Location&lt;/font&gt;&lt;/p&gt;" style="rounded=1;whiteSpace=wrap;html=1;strokeColor=#FF932E;fillColor=#FCF3A9;fontColor=light-dark(#FF932E,#EDEDED);fontSize=5;" parent="fnEj_ayywKSCDemoJo8B-65" vertex="1">
          <mxGeometry x="20" y="42" width="41" height="7" as="geometry" />
        </mxCell>
        <mxCell id="kvqN7XmEF2bgXKHRiKG0-74" value="&lt;div style=&quot;&quot;&gt;Skills:&lt;/div&gt;&lt;div style=&quot;&quot;&gt;-&amp;nbsp;&lt;br&gt;-&amp;nbsp;&lt;/div&gt;&lt;div style=&quot;&quot;&gt;-&amp;nbsp;&lt;/div&gt;" style="rounded=1;whiteSpace=wrap;html=1;strokeColor=#FF932E;fillColor=#FCF3A9;fontColor=light-dark(#FF932E,#EDEDED);fontSize=4;align=left;" parent="fnEj_ayywKSCDemoJo8B-65" vertex="1">
          <mxGeometry x="85" y="79" width="118" height="22" as="geometry" />
        </mxCell>
        <mxCell id="kvqN7XmEF2bgXKHRiKG0-81" value="&lt;p&gt;&lt;font style=&quot;line-height: 0%;&quot;&gt;Statistics&lt;/font&gt;&lt;/p&gt;" style="rounded=1;whiteSpace=wrap;html=1;strokeColor=#FF932E;fillColor=#FCF3A9;fontColor=light-dark(#FF932E,#EDEDED);fontSize=5;" parent="fnEj_ayywKSCDemoJo8B-65" vertex="1">
          <mxGeometry x="85" y="42" width="118" height="7" as="geometry" />
        </mxCell>
        <mxCell id="kvqN7XmEF2bgXKHRiKG0-82" value="&lt;font style=&quot;font-size: 5px;&quot;&gt;Sponsors, sources, contact, misc information here&lt;/font&gt;" style="rounded=0;whiteSpace=wrap;html=1;" parent="fnEj_ayywKSCDemoJo8B-65" vertex="1">
          <mxGeometry x="11" y="140" width="198" height="10" as="geometry" />
        </mxCell>
        <mxCell id="kvqN7XmEF2bgXKHRiKG0-104" value="&lt;p&gt;&lt;font style=&quot;line-height: 0%;&quot;&gt;Donate&lt;/font&gt;&lt;/p&gt;" style="rounded=1;whiteSpace=wrap;html=1;strokeColor=#FF932E;fillColor=#FCF3A9;fontColor=light-dark(#FF932E,#EDEDED);fontSize=13;" parent="fnEj_ayywKSCDemoJo8B-65" vertex="1">
          <mxGeometry x="73" y="121" width="70" height="13" as="geometry" />
        </mxCell>
        <mxCell id="fnEj_ayywKSCDemoJo8B-70" value="Home Page" style="text;strokeColor=none;fillColor=none;html=1;fontSize=24;fontStyle=1;verticalAlign=middle;align=center;" parent="fnEj_ayywKSCDemoJo8B-65" vertex="1">
          <mxGeometry x="69" y="155" width="100" height="40" as="geometry" />
        </mxCell>
        <mxCell id="kvqN7XmEF2bgXKHRiKG0-80" value="" style="group" parent="1" vertex="1" connectable="0">
          <mxGeometry x="738" y="173" width="114" height="74" as="geometry" />
        </mxCell>
        <mxCell id="fnEj_ayywKSCDemoJo8B-60" value="" style="group" parent="kvqN7XmEF2bgXKHRiKG0-80" vertex="1" connectable="0">
          <mxGeometry width="114" height="74" as="geometry" />
        </mxCell>
        <mxCell id="fnEj_ayywKSCDemoJo8B-44" value="" style="rounded=1;whiteSpace=wrap;html=1;strokeColor=#FF932E;fillColor=#FCF3A9;" parent="fnEj_ayywKSCDemoJo8B-60" vertex="1">
          <mxGeometry x="4" width="110" height="74" as="geometry" />
        </mxCell>
        <UserObject label="Sign Up" placeholders="1" name="Variable" id="fnEj_ayywKSCDemoJo8B-45">
          <mxCell style="text;html=1;strokeColor=none;fillColor=none;align=center;verticalAlign=middle;whiteSpace=wrap;overflow=hidden;fontSize=8;flipH=0;flipV=0;fontColor=light-dark(#FF932E,#FFC856);" parent="fnEj_ayywKSCDemoJo8B-60" vertex="1">
            <mxGeometry y="2" width="50" height="14" as="geometry" />
          </mxCell>
        </UserObject>
        <mxCell id="kvqN7XmEF2bgXKHRiKG0-75" value="&lt;span style=&quot;font-size: 6px;&quot;&gt;*dropdown*&lt;/span&gt;" style="rounded=1;whiteSpace=wrap;html=1;strokeColor=light-dark(#FFFFFF,#FFC856);strokeWidth=1;fillColor=#E6E6E6;" parent="fnEj_ayywKSCDemoJo8B-60" vertex="1">
          <mxGeometry x="11" y="49" width="39" height="6" as="geometry" />
        </mxCell>
        <mxCell id="kvqN7XmEF2bgXKHRiKG0-79" value="&lt;span style=&quot;font-size: 8px;&quot;&gt;What skill do you specialise?&lt;/span&gt;" style="rounded=0;whiteSpace=wrap;html=1;fillColor=light-dark(#FCF3A9,#FFC856);gradientColor=none;fontColor=#FFC856;strokeWidth=0;dashed=1;dashPattern=1 4;perimeterSpacing=0;glass=0;shadow=0;strokeColor=none;" parent="fnEj_ayywKSCDemoJo8B-60" vertex="1">
          <mxGeometry x="8" y="39" width="105" height="6" as="geometry" />
        </mxCell>
        <mxCell id="fnEj_ayywKSCDemoJo8B-63" value="" style="group" parent="kvqN7XmEF2bgXKHRiKG0-80" vertex="1" connectable="0">
          <mxGeometry x="5" y="17" width="89" height="17" as="geometry" />
        </mxCell>
        <mxCell id="fnEj_ayywKSCDemoJo8B-46" value="&lt;span style=&quot;font-size: 8px;&quot;&gt;What can you donate?&lt;/span&gt;" style="rounded=0;whiteSpace=wrap;html=1;fillColor=light-dark(#FCF3A9,#FFC856);gradientColor=none;fontColor=#FFC856;strokeWidth=0;dashed=1;dashPattern=1 4;perimeterSpacing=0;glass=0;shadow=0;strokeColor=none;" parent="fnEj_ayywKSCDemoJo8B-63" vertex="1">
          <mxGeometry width="89" height="6" as="geometry" />
        </mxCell>
        <mxCell id="fnEj_ayywKSCDemoJo8B-49" value="&lt;span style=&quot;font-size: 6px;&quot;&gt;*dropdown*&lt;/span&gt;" style="rounded=1;whiteSpace=wrap;html=1;strokeColor=light-dark(#FFFFFF,#FFC856);strokeWidth=1;fillColor=#E6E6E6;" parent="fnEj_ayywKSCDemoJo8B-63" vertex="1">
          <mxGeometry x="6" y="11" width="39" height="6" as="geometry" />
        </mxCell>
        <mxCell id="kvqN7XmEF2bgXKHRiKG0-83" value="" style="group;fontStyle=1" parent="1" vertex="1" connectable="0">
          <mxGeometry x="340" y="330" width="325" height="248" as="geometry" />
        </mxCell>
        <mxCell id="kvqN7XmEF2bgXKHRiKG0-84" value="|&amp;nbsp; &amp;nbsp; &amp;nbsp; &amp;nbsp; &amp;nbsp; ||&amp;nbsp; &amp;nbsp; &amp;nbsp; &amp;nbsp; &amp;nbsp; ||&amp;nbsp; &amp;nbsp; &amp;nbsp; &amp;nbsp; &amp;nbsp; |&amp;nbsp; &amp;nbsp; &amp;nbsp; &amp;nbsp; &amp;nbsp; &amp;nbsp; &amp;nbsp; &amp;nbsp; &amp;nbsp; &amp;nbsp; &amp;nbsp; &amp;nbsp;&amp;nbsp;" style="rounded=0;whiteSpace=wrap;html=1;strokeWidth=0;labelBackgroundColor=none;strokeColor=none;" parent="kvqN7XmEF2bgXKHRiKG0-83" vertex="1">
          <mxGeometry width="220" height="10" as="geometry" />
        </mxCell>
        <mxCell id="kvqN7XmEF2bgXKHRiKG0-85" value="" style="rounded=0;whiteSpace=wrap;html=1;fillColor=#FFC856;fillStyle=auto;gradientColor=light-dark(#FFCA78,#FFC856);gradientDirection=radial;strokeWidth=0;dashed=1;dashPattern=1 4;strokeColor=none;" parent="kvqN7XmEF2bgXKHRiKG0-83" vertex="1">
          <mxGeometry x="10" y="20" width="200" height="130" as="geometry" />
        </mxCell>
        <mxCell id="kvqN7XmEF2bgXKHRiKG0-86" value="&lt;font style=&quot;font-size: 7px;&quot;&gt;&amp;lt;&amp;nbsp; &amp;gt;&amp;nbsp; @&amp;nbsp; &amp;nbsp;|https://www.gratia.com&amp;nbsp; &amp;nbsp; &amp;nbsp; &amp;nbsp; &amp;nbsp; &amp;nbsp; &amp;nbsp; &amp;nbsp; &amp;nbsp; &amp;nbsp; &amp;nbsp; &amp;nbsp; &amp;nbsp; &amp;nbsp; &amp;nbsp; &amp;nbsp; &amp;nbsp; &amp;nbsp; &amp;nbsp; &amp;nbsp; &amp;nbsp; | #&amp;nbsp; :&lt;/font&gt;" style="rounded=0;whiteSpace=wrap;html=1;strokeWidth=0;align=left;strokeColor=none;" parent="kvqN7XmEF2bgXKHRiKG0-83" vertex="1">
          <mxGeometry x="10" y="10" width="200" height="10" as="geometry" />
        </mxCell>
        <mxCell id="kvqN7XmEF2bgXKHRiKG0-87" value="" style="group" parent="kvqN7XmEF2bgXKHRiKG0-83" vertex="1" connectable="0">
          <mxGeometry x="195" y="24" width="12" height="12" as="geometry" />
        </mxCell>
        <mxCell id="kvqN7XmEF2bgXKHRiKG0-88" value="" style="ellipse;whiteSpace=wrap;html=1;aspect=fixed;strokeWidth=0.5;fillColor=#FF932E;" parent="kvqN7XmEF2bgXKHRiKG0-87" vertex="1">
          <mxGeometry width="12" height="12" as="geometry" />
        </mxCell>
        <mxCell id="kvqN7XmEF2bgXKHRiKG0-89" value="" style="shape=actor;whiteSpace=wrap;html=1;strokeWidth=0.25;" parent="kvqN7XmEF2bgXKHRiKG0-87" vertex="1">
          <mxGeometry x="3.4285714285714284" y="1.7142857142857142" width="5.142857142857142" height="8.571428571428571" as="geometry" />
        </mxCell>
        <mxCell id="kvqN7XmEF2bgXKHRiKG0-90" value="" style="endArrow=none;html=1;rounded=0;exitX=0.007;exitY=0.127;exitDx=0;exitDy=0;exitPerimeter=0;entryX=0.997;entryY=0.138;entryDx=0;entryDy=0;entryPerimeter=0;" parent="kvqN7XmEF2bgXKHRiKG0-83" source="kvqN7XmEF2bgXKHRiKG0-85" target="kvqN7XmEF2bgXKHRiKG0-85" edge="1">
          <mxGeometry width="50" height="50" relative="1" as="geometry">
            <mxPoint x="74" y="106" as="sourcePoint" />
            <mxPoint x="226" y="100" as="targetPoint" />
          </mxGeometry>
        </mxCell>
        <UserObject label="&lt;font data-font-src=&quot;https://fonts.googleapis.com/css?family=Dancing+Script&quot; face=&quot;Dancing Script&quot; style=&quot;font-size: 9px;&quot;&gt;Gratia&lt;/font&gt;" placeholders="1" name="Variable" id="kvqN7XmEF2bgXKHRiKG0-91">
          <mxCell style="text;html=1;strokeColor=none;fillColor=none;align=center;verticalAlign=middle;whiteSpace=wrap;overflow=hidden;fontSize=5;fontStyle=1" parent="kvqN7XmEF2bgXKHRiKG0-83" vertex="1">
            <mxGeometry x="85" y="21" width="50" height="15" as="geometry" />
          </mxCell>
        </UserObject>
        <mxCell id="kvqN7XmEF2bgXKHRiKG0-92" value="&lt;p&gt;&lt;font style=&quot;line-height: 0%;&quot;&gt;Donate&lt;/font&gt;&lt;/p&gt;" style="rounded=1;whiteSpace=wrap;html=1;strokeColor=#FF932E;fillColor=#FCF3A9;fontColor=light-dark(#FF932E,#EDEDED);fontSize=5;" parent="kvqN7XmEF2bgXKHRiKG0-83" vertex="1">
          <mxGeometry x="144" y="26" width="28" height="7" as="geometry" />
        </mxCell>
        <mxCell id="kvqN7XmEF2bgXKHRiKG0-93" value="&lt;p&gt;&lt;font style=&quot;line-height: 0%;&quot;&gt;About Us&lt;/font&gt;&lt;/p&gt;" style="rounded=1;whiteSpace=wrap;html=1;strokeColor=#FF932E;fillColor=#FCF3A9;fontColor=light-dark(#FF932E,#EDEDED);fontSize=5;" parent="kvqN7XmEF2bgXKHRiKG0-83" vertex="1">
          <mxGeometry x="16" y="26" width="28" height="7" as="geometry" />
        </mxCell>
        <mxCell id="kvqN7XmEF2bgXKHRiKG0-94" value="*placeholder*" style="rounded=1;whiteSpace=wrap;html=1;strokeColor=#FF932E;fillColor=#FCF3A9;fontColor=light-dark(#FF932E,#EDEDED);fontSize=4;" parent="kvqN7XmEF2bgXKHRiKG0-83" vertex="1">
          <mxGeometry x="59" y="26" width="28" height="7" as="geometry" />
        </mxCell>
        <mxCell id="kvqN7XmEF2bgXKHRiKG0-95" value="People have been asking for:&lt;div&gt;-&lt;/div&gt;&lt;div&gt;-&lt;/div&gt;&lt;div&gt;-&lt;/div&gt;&lt;div&gt;-&lt;/div&gt;" style="rounded=1;whiteSpace=wrap;html=1;strokeColor=#FF932E;fillColor=#FCF3A9;fontColor=light-dark(#FF932E,#EDEDED);fontSize=4;align=left;" parent="kvqN7XmEF2bgXKHRiKG0-83" vertex="1">
          <mxGeometry x="20" y="53" width="51" height="43" as="geometry" />
        </mxCell>
        <mxCell id="kvqN7XmEF2bgXKHRiKG0-97" value="Change Location" style="rounded=1;whiteSpace=wrap;html=1;strokeColor=#FF932E;fillColor=#FCF3A9;fontColor=light-dark(#FF932E,#EDEDED);fontSize=2;" parent="kvqN7XmEF2bgXKHRiKG0-83" vertex="1">
          <mxGeometry x="53" y="42" width="18" height="7" as="geometry" />
        </mxCell>
        <mxCell id="kvqN7XmEF2bgXKHRiKG0-99" value="&lt;p&gt;&lt;font style=&quot;line-height: 0%;&quot;&gt;*Your Location*&lt;/font&gt;&lt;/p&gt;" style="rounded=1;whiteSpace=wrap;html=1;strokeColor=#FF932E;fillColor=#FCF3A9;fontColor=light-dark(#FF932E,#EDEDED);fontSize=4;" parent="kvqN7XmEF2bgXKHRiKG0-83" vertex="1">
          <mxGeometry x="20" y="42" width="30" height="7" as="geometry" />
        </mxCell>
        <mxCell id="kvqN7XmEF2bgXKHRiKG0-102" value="&lt;font style=&quot;font-size: 5px;&quot;&gt;Sponsors, sources, contact, misc information here&lt;/font&gt;" style="rounded=0;whiteSpace=wrap;html=1;" parent="kvqN7XmEF2bgXKHRiKG0-83" vertex="1">
          <mxGeometry x="11" y="140" width="198" height="10" as="geometry" />
        </mxCell>
        <mxCell id="kvqN7XmEF2bgXKHRiKG0-127" value="" style="group" parent="kvqN7XmEF2bgXKHRiKG0-83" vertex="1" connectable="0">
          <mxGeometry x="86" y="54" width="109" height="69" as="geometry" />
        </mxCell>
        <mxCell id="kvqN7XmEF2bgXKHRiKG0-128" value="" style="rounded=1;whiteSpace=wrap;html=1;strokeColor=#FF932E;fillColor=#FCF3A9;" parent="kvqN7XmEF2bgXKHRiKG0-127" vertex="1">
          <mxGeometry x="3.8245614035087723" width="105.17543859649123" height="69" as="geometry" />
        </mxCell>
        <UserObject label="What are you donating?" placeholders="1" name="Variable" id="kvqN7XmEF2bgXKHRiKG0-129">
          <mxCell style="text;html=1;strokeColor=none;fillColor=none;align=center;verticalAlign=middle;whiteSpace=wrap;overflow=hidden;fontSize=8;flipH=0;flipV=0;fontColor=light-dark(#FF932E,#FFC856);" parent="kvqN7XmEF2bgXKHRiKG0-127" vertex="1">
            <mxGeometry y="1.86" width="108" height="13.05" as="geometry" />
          </mxCell>
        </UserObject>
        <UserObject label="Please fill out the form." placeholders="1" name="Variable" id="kvqN7XmEF2bgXKHRiKG0-130">
          <mxCell style="text;html=1;strokeColor=none;fillColor=none;align=center;verticalAlign=middle;whiteSpace=wrap;overflow=hidden;fontSize=4;flipH=0;flipV=0;fontColor=light-dark(#FF932E,#FFC856);" parent="kvqN7XmEF2bgXKHRiKG0-127" vertex="1">
            <mxGeometry x="6" y="10" width="52" height="9" as="geometry" />
          </mxCell>
        </UserObject>
        <UserObject label="&lt;font style=&quot;font-size: 6px;&quot;&gt;Item Type:&lt;/font&gt;" placeholders="1" name="Variable" id="kvqN7XmEF2bgXKHRiKG0-131">
          <mxCell style="text;html=1;strokeColor=none;fillColor=none;align=center;verticalAlign=middle;whiteSpace=wrap;overflow=hidden;fontSize=4;flipH=0;flipV=0;fontColor=light-dark(#FF932E,#FFC856);" parent="kvqN7XmEF2bgXKHRiKG0-127" vertex="1">
            <mxGeometry x="9" y="17" width="33" height="11" as="geometry" />
          </mxCell>
        </UserObject>
        <UserObject label="&lt;font style=&quot;font-size: 6px;&quot;&gt;Description:&lt;/font&gt;" placeholders="1" name="Variable" id="kvqN7XmEF2bgXKHRiKG0-132">
          <mxCell style="text;html=1;strokeColor=none;fillColor=none;align=center;verticalAlign=middle;whiteSpace=wrap;overflow=hidden;fontSize=4;flipH=0;flipV=0;fontColor=light-dark(#FF932E,#FFC856);" parent="kvqN7XmEF2bgXKHRiKG0-127" vertex="1">
            <mxGeometry x="9" y="37" width="37" height="11" as="geometry" />
          </mxCell>
        </UserObject>
        <mxCell id="kvqN7XmEF2bgXKHRiKG0-134" value="&lt;span style=&quot;font-size: 6px;&quot;&gt;*dropdown*&lt;/span&gt;" style="rounded=1;whiteSpace=wrap;html=1;strokeColor=light-dark(#FFFFFF,#FFC856);strokeWidth=1;fillColor=#E6E6E6;" parent="kvqN7XmEF2bgXKHRiKG0-127" vertex="1">
          <mxGeometry x="12" y="29" width="39" height="6" as="geometry" />
        </mxCell>
        <mxCell id="kvqN7XmEF2bgXKHRiKG0-135" value="&lt;span style=&quot;font-size: 6px;&quot;&gt;input=&#39;text&#39;&lt;/span&gt;" style="rounded=1;whiteSpace=wrap;html=1;strokeColor=light-dark(#FFFFFF,#FFC856);strokeWidth=1;fillColor=#E6E6E6;" parent="kvqN7XmEF2bgXKHRiKG0-127" vertex="1">
          <mxGeometry x="12" y="49" width="39" height="6" as="geometry" />
        </mxCell>
        <mxCell id="fnEj_ayywKSCDemoJo8B-75" value="Donation Page" style="text;strokeColor=none;fillColor=none;html=1;fontSize=24;fontStyle=1;verticalAlign=middle;align=center;" parent="kvqN7XmEF2bgXKHRiKG0-83" vertex="1">
          <mxGeometry x="90" y="160" width="100" height="40" as="geometry" />
        </mxCell>
        <mxCell id="kvqN7XmEF2bgXKHRiKG0-105" style="edgeStyle=orthogonalEdgeStyle;rounded=0;orthogonalLoop=1;jettySize=auto;html=1;entryX=1;entryY=0.5;entryDx=0;entryDy=0;" parent="1" source="kvqN7XmEF2bgXKHRiKG0-104" target="kvqN7XmEF2bgXKHRiKG0-85" edge="1">
          <mxGeometry relative="1" as="geometry" />
        </mxCell>
        <mxCell id="kvqN7XmEF2bgXKHRiKG0-136" style="edgeStyle=orthogonalEdgeStyle;rounded=0;orthogonalLoop=1;jettySize=auto;html=1;entryX=1;entryY=0.5;entryDx=0;entryDy=0;" parent="1" source="kvqN7XmEF2bgXKHRiKG0-10" target="kvqN7XmEF2bgXKHRiKG0-85" edge="1">
          <mxGeometry relative="1" as="geometry">
            <Array as="points">
              <mxPoint x="700" y="335" />
              <mxPoint x="700" y="415" />
            </Array>
          </mxGeometry>
        </mxCell>
      </root>
    </mxGraphModel>
  </diagram>
</mxfile>
